<?xml version="1.0" encoding="UTF-8"?>
<svg id="_Слой_1" data-name="Слой 1" xmlns="http://www.w3.org/2000/svg" viewBox="0 0 120 120">
  <defs>
    <style>
      .cls-1 {
        fill: #fff;
      }

      .cls-1, .cls-2, .cls-3 {
        stroke-width: 0px;
      }

      .cls-2 {
        fill: #ff5736;
      }

      .cls-3 {
        fill: #ff0036;
      }

      .cls-4 {
        font-family: ArialRoundedMTBold, 'Arial Rounded MT Bold';
        font-size: 41.84px;
      }
    </style>
  </defs>
  <g>
    <circle class="cls-1" cx="59.5" cy="59.5" r="53"/>
    <path class="cls-3" d="m59.5,7c28.95,0,52.5,23.55,52.5,52.5s-23.55,52.5-52.5,52.5S7,88.45,7,59.5,30.55,7,59.5,7m0-1C29.95,6,6,29.95,6,59.5s23.95,53.5,53.5,53.5,53.5-23.95,53.5-53.5S89.05,6,59.5,6h0Z"/>
  </g>
  <polygon class="cls-2" points="102.12 3 77.88 3 65.75 24 77.88 45 102.12 45 114.25 24 102.12 3"/>
  <text class="cls-4" transform="translate(30.42 77.18)"><tspan x="0" y="0">FG</tspan></text>
</svg>